<?xml version="1.0" standalone="no"?>
<!DOCTYPE svg PUBLIC "-//W3C//DTD SVG 20010904//EN"
 "http://www.w3.org/TR/2001/REC-SVG-20010904/DTD/svg10.dtd">
<svg version="1.0" xmlns="http://www.w3.org/2000/svg"
 width="528.000000pt" height="140.000000pt" viewBox="0 0 528.000000 140.000000"
 preserveAspectRatio="xMidYMid meet">

<g transform="translate(0.000000,140.000000) scale(0.100000,-0.100000)"
fill="#000000" stroke="none">
<path d="M605 1326 c-5 -2 -50 -10 -100 -17 -49 -6 -108 -21 -130 -32 -61 -29
-135 -114 -190 -218 -67 -125 -81 -160 -96 -247 -18 -107 4 -208 76 -353 100
-201 190 -297 315 -334 119 -36 401 -29 499 11 54 23 118 67 134 94 9 14 28
38 42 55 46 48 134 221 166 325 36 113 29 196 -33 361 -22 61 -111 198 -160
247 -55 54 -91 71 -193 91 -59 12 -311 25 -330 17z m320 -312 c82 -20 128 -50
155 -104 36 -71 20 -154 -41 -209 -17 -16 -36 -38 -43 -50 -6 -11 -23 -38 -39
-59 -15 -21 -37 -65 -48 -98 -21 -59 -44 -94 -62 -94 -5 0 -21 -9 -37 -20 -60
-43 -162 -34 -230 20 -36 28 -73 91 -84 140 -6 27 -90 147 -117 167 -29 22
-61 110 -53 149 6 32 62 119 87 136 9 5 112 28 197 42 52 9 248 -3 315 -20z"/>
<path d="M2930 1154 c-69 -23 -152 -63 -187 -91 -66 -53 -132 -160 -144 -235
-14 -83 -4 -238 17 -280 53 -103 134 -187 219 -230 93 -46 307 -38 397 15 131
76 217 215 226 359 5 89 -7 146 -49 233 -34 72 -121 162 -176 183 -128 48
-141 51 -213 51 -41 0 -82 -3 -90 -5z m193 -195 c163 -83 199 -274 78 -420
-44 -52 -148 -86 -221 -70 -155 33 -222 142 -197 317 9 64 13 70 64 118 29 28
68 56 86 63 54 19 142 16 190 -8z"/>
<path d="M4637 1150 c-20 -5 -55 -19 -77 -30 -21 -11 -44 -20 -49 -20 -6 0
-33 -21 -61 -47 -60 -55 -117 -147 -136 -218 -30 -110 -5 -276 51 -341 14 -16
25 -33 25 -39 1 -14 36 -55 47 -55 5 0 20 -12 34 -26 66 -71 216 -104 356 -80
80 14 127 32 155 58 7 7 32 28 55 46 69 54 132 183 140 288 7 91 -9 160 -59
251 -73 134 -201 213 -357 219 -47 2 -103 -1 -124 -6z m199 -189 c52 -24 111
-83 135 -135 26 -57 25 -157 -1 -210 -36 -73 -79 -111 -153 -136 -59 -20 -74
-22 -115 -12 -88 20 -120 40 -164 100 -40 54 -43 61 -46 135 -5 97 13 150 69
201 80 74 188 97 275 57z"/>
<path d="M1720 725 l0 -425 90 0 90 0 0 165 0 165 160 0 160 0 0 -165 0 -165
95 0 95 0 -2 423 -3 422 -90 0 -90 0 -3 -167 -2 -168 -160 0 -160 0 0 170 0
170 -90 0 -90 0 0 -425z"/>
<path d="M3544 1137 c-3 -8 -4 -47 -2 -88 l3 -74 133 -3 132 -3 0 -334 0 -335
90 0 90 0 0 335 0 335 135 0 135 0 0 90 0 90 -355 0 c-289 0 -357 -3 -361 -13z"/>
</g>
</svg>
